<svg xmlns="http://www.w3.org/2000/svg" viewBox="0 0 512 512" width="512" height="512">
  <defs>
    <linearGradient id="g" x1="0" y1="0" x2="1" y2="1">
      <stop offset="0" stop-color="#24AA5A"/>
      <stop offset="0.55" stop-color="#1A7A45"/>
      <stop offset="1" stop-color="#0D3D22"/>
    </linearGradient>
  </defs>
  <rect width="512" height="512" rx="112" fill="url(#g)"/>
  <circle cx="256" cy="256" r="150" fill="rgba(255,255,255,0.10)"/>
  <path fill="#FFFFFF" d="M256 360c-8 0-15-3-21-8-44-39-86-74-86-122 0-34 26-60 59-60 19 0 37 9 48 24 11-15 29-24 48-24 33 0 59 26 59 60 0 48-42 83-86 122-6 5-13 8-21 8z"/>
</svg>
